<?xml version="1.0" encoding="utf-8"?>
<svg viewBox="-122.8927 -35.894 179.19 93.7888" width="179.19" height="93.7888" xmlns="http://www.w3.org/2000/svg">
  <g data-v-0dd9719b="" fill="#333" class="icon-text-wrapper icon-svg-group iconsvg" transform="matrix(1, 0, 0, 1, -122.89267730712893, -35.89398956298828)">
    <g class="iconsvg-imagesvg" transform="translate(59.595001220703125,0)">
      <g>
        <rect fill="#333" fill-opacity="0" stroke-width="2" x="0" y="0" width="60" height="56.258790436005626" class="image-rect"/>
        <svg x="0" y="0" width="60" height="56.258790436005626" filtersec="colorsb5010231834" class="image-svg-svg primary" style="overflow: visible;">
          <svg xmlns="http://www.w3.org/2000/svg" viewBox="0 0 106.64999389648438 100">
            <path fill="#3296cb" d="M63.58 19.23L53.32 0 0 100h22.31l41.27-80.77z"/>
            <path fill="#bc1029" d="M31.12 100h44.41L53.32 56.59 31.12 100z"/>
            <path fill="#0a3d85" d="M57.62 47.76L84.34 100h22.31L67.72 26.99l-10.1 20.77z"/>
          </svg>
        </svg>
      </g>
    </g>
    <g transform="translate(0,63.2587890625)">
      <g data-gra="path-name" fill-rule="" class="tp-name iconsvg-namesvg">
        <g transform="scale(1)">
          <g>
            <path d="M8.07 0.3L8.07 0.3Q6.01 0.3 4.64-0.09 3.26-0.48 2.44-1.09 1.61-1.7 1.26-2.46 0.91-3.22 0.91-3.97L0.91-3.97Q0.91-4.76 1.2-5.29 1.49-5.83 1.98-6.17 2.46-6.51 3.08-6.66 3.7-6.81 4.37-6.81L4.37-6.81Q4.37-5.5 4.68-4.51 4.99-3.52 5.55-2.85 6.1-2.19 6.87-1.86 7.63-1.52 8.54-1.52L8.54-1.52Q9.44-1.52 10.14-1.77 10.84-2.03 11.33-2.47 11.82-2.92 12.08-3.53 12.33-4.13 12.33-4.83L12.33-4.83Q12.33-5.61 12.02-6.21 11.7-6.81 11.07-7.33 10.44-7.84 9.47-8.31 8.51-8.78 7.23-9.32L7.23-9.32Q5.64-9.97 4.54-10.67 3.44-11.36 2.77-12.16 2.1-12.97 1.81-13.91 1.52-14.85 1.52-15.97L1.52-15.97Q1.52-17.37 2.09-18.5 2.65-19.63 3.65-20.44 4.65-21.24 6.02-21.68 7.39-22.11 9-22.11L9-22.11Q10.69-22.11 11.91-21.83 13.13-21.56 13.93-21.08 14.73-20.6 15.12-19.95 15.5-19.31 15.5-18.56L15.5-18.56Q15.5-18.02 15.27-17.56 15.04-17.1 14.57-16.76 14.1-16.41 13.39-16.22 12.69-16.03 11.75-16.03L11.75-16.03Q11.75-16.67 11.58-17.41 11.4-18.14 11.02-18.78 10.63-19.41 10.01-19.83 9.39-20.25 8.51-20.25L8.51-20.25Q7.9-20.25 7.35-20.07 6.8-19.89 6.39-19.53 5.98-19.17 5.74-18.64 5.5-18.11 5.5-17.43L5.5-17.43Q5.5-16.79 5.71-16.22 5.92-15.65 6.48-15.11 7.04-14.57 8.01-14.02 8.99-13.48 10.54-12.85L10.54-12.85Q12.11-12.21 13.21-11.54 14.31-10.87 15.02-10.1 15.73-9.33 16.05-8.42 16.37-7.5 16.37-6.38L16.37-6.38Q16.37-4.9 15.79-3.67 15.21-2.44 14.12-1.57 13.03-0.69 11.5-0.19 9.97 0.3 8.07 0.3ZM27.48-2.16L27.48-2.16Q28.07-2.16 28.62-2.24 29.16-2.33 29.64-2.44L29.64-2.44 29.64-0.46Q29.4-0.34 28.99-0.21 28.58-0.07 28.03 0.04 27.49 0.15 26.8 0.22 26.12 0.3 25.31 0.3L25.31 0.3Q24.29 0.3 23.45 0.05 22.62-0.19 22.03-0.77 21.45-1.34 21.14-2.26 20.83-3.18 20.83-4.52L20.83-4.52 20.83-14.28 18.53-14.28 18.53-15.85Q19.51-15.85 20.29-16.23 21.07-16.62 21.53-17.13L21.53-17.13Q22.47-18.11 22.93-20.16L22.93-20.16 25.46-20.16 25.46-16.37 29.37-16.37 29.37-14.28 25.46-14.28 25.46-4.83Q25.46-3.44 25.93-2.8 26.4-2.16 27.48-2.16ZM36.36-4.55L36.36-4.55Q36.36-3.24 36.78-2.58 37.2-1.92 38.09-1.92L38.09-1.92Q38.75-1.92 39.28-2.2 39.8-2.47 40.18-2.98 40.56-3.49 40.77-4.21 40.97-4.93 40.97-5.83L40.97-5.83 40.97-8.12 39.6-8.04Q38.69-7.99 38.06-7.74 37.43-7.5 37.06-7.07 36.69-6.63 36.52-6.01 36.36-5.38 36.36-4.55ZM39.07-14.89L39.07-14.89Q38.49-14.89 38.1-14.65 37.7-14.4 37.46-13.96 37.23-13.52 37.13-12.92 37.03-12.31 37.03-11.6L37.03-11.6Q34.97-11.6 33.94-12.06 32.9-12.52 32.9-13.64L32.9-13.64Q32.9-14.48 33.4-15.07 33.9-15.67 34.76-16.04 35.62-16.41 36.76-16.59 37.9-16.76 39.19-16.76L39.19-16.76Q40.8-16.76 42-16.48 43.2-16.21 44-15.59 44.8-14.98 45.2-13.99 45.6-13 45.6-11.57L45.6-11.57 45.6-3.79Q45.6-3.16 45.7-2.74 45.8-2.33 46.01-2.08 46.22-1.83 46.57-1.73 46.93-1.62 47.44-1.62L47.44-1.62 47.56-1.62 47.56 0 41.88 0 41.24-2.1 40.97-2.1Q40.46-1.49 40.01-1.04 39.57-0.58 39.06-0.28 38.55 0.01 37.92 0.16 37.29 0.3 36.42 0.3L36.42 0.3Q35.41 0.3 34.53 0 33.66-0.3 33.01-0.92 32.37-1.54 31.99-2.47 31.62-3.4 31.62-4.67L31.62-4.67Q31.62-7.16 33.33-8.35 35.03-9.54 38.46-9.65L38.46-9.65 40.97-9.73 40.97-11.42Q40.97-12.18 40.91-12.82 40.85-13.46 40.65-13.92 40.46-14.39 40.08-14.64 39.7-14.89 39.07-14.89ZM65.49-15.79L65.49-15.79Q65.49-15.44 65.39-15.12 65.28-14.8 65.04-14.57 64.79-14.33 64.37-14.19 63.94-14.04 63.31-14.04L63.31-14.04Q63.31-14.36 63.22-14.59 63.12-14.83 62.96-15 62.79-15.16 62.58-15.24 62.38-15.33 62.15-15.33L62.15-15.33Q61.9-15.33 61.61-15.22 61.32-15.12 61.15-15L61.15-15Q61.47-14.65 61.73-14.21 62-13.78 62.2-13.27 62.41-12.76 62.52-12.22 62.64-11.67 62.64-11.11L62.64-11.11Q62.64-9.96 62.28-8.98 61.91-8.01 61.15-7.29 60.39-6.57 59.23-6.17 58.07-5.77 56.47-5.77L56.47-5.77Q56.31-5.77 56.05-5.78 55.8-5.78 55.55-5.79 55.29-5.8 55.06-5.82 54.83-5.84 54.71-5.86L54.71-5.86Q54.52-5.75 54.32-5.6 54.12-5.44 53.96-5.25 53.8-5.05 53.71-4.82 53.61-4.58 53.61-4.31L53.61-4.31Q53.61-3.8 54-3.56 54.4-3.32 55.04-3.32L55.04-3.32 58.74-3.32Q60.26-3.32 61.36-3 62.46-2.68 63.19-2.09 63.91-1.49 64.25-0.62 64.6 0.25 64.6 1.34L64.6 1.34Q64.6 2.76 64.06 3.87 63.52 4.98 62.43 5.75 61.33 6.51 59.67 6.92 58.01 7.33 55.74 7.33L55.74 7.33Q52.13 7.33 50.37 6.25 48.6 5.17 48.6 3.09L48.6 3.09Q48.6 1.45 49.66 0.57 50.72-0.3 52.73-0.46L52.73-0.46Q52.31-0.63 51.91-0.86 51.51-1.1 51.19-1.44 50.88-1.77 50.69-2.21 50.49-2.64 50.49-3.18L50.49-3.18Q50.49-3.68 50.69-4.11 50.9-4.55 51.25-4.94 51.61-5.34 52.11-5.69 52.61-6.04 53.21-6.38L53.21-6.38Q52.54-6.62 51.96-7.04 51.39-7.47 50.98-8.07 50.57-8.66 50.33-9.42 50.09-10.18 50.09-11.11L50.09-11.11Q50.09-13.79 51.65-15.27 53.21-16.76 56.47-16.76L56.47-16.76Q57.56-16.76 58.49-16.48 59.42-16.21 60.11-15.82L60.11-15.82Q60.36-16.09 60.67-16.39 60.97-16.7 61.36-16.95 61.75-17.2 62.23-17.37 62.7-17.53 63.28-17.53L63.28-17.53Q63.84-17.53 64.25-17.39 64.66-17.25 64.93-17.01 65.21-16.77 65.35-16.46 65.49-16.15 65.49-15.79ZM52.21 3.03L52.21 3.03Q52.21 4.29 53.12 4.9 54.04 5.5 55.8 5.5L55.8 5.5Q58.48 5.5 59.71 4.73 60.93 3.95 60.93 2.44L60.93 2.44Q60.93 1.48 60.32 1.09 59.71 0.7 58.47 0.7L58.47 0.7 54.92 0.7Q54.46 0.7 53.98 0.78 53.51 0.86 53.11 1.12 52.71 1.37 52.46 1.83 52.21 2.28 52.21 3.03ZM54.25-11.11L54.25-11.11Q54.25-10.3 54.36-9.65 54.47-9 54.73-8.54 54.98-8.08 55.38-7.83 55.79-7.57 56.38-7.57L56.38-7.57Q56.99-7.57 57.4-7.82 57.8-8.07 58.04-8.53 58.28-9 58.37-9.67 58.47-10.33 58.47-11.15L58.47-11.15Q58.47-12 58.37-12.69 58.26-13.39 58.01-13.88 57.77-14.37 57.37-14.65 56.96-14.92 56.35-14.92L56.35-14.92Q55.76-14.92 55.35-14.64 54.95-14.36 54.71-13.85 54.46-13.34 54.35-12.64 54.25-11.94 54.25-11.11ZM74.7-14.77L74.7-14.77Q73.42-14.77 72.67-13.51 71.92-12.24 71.84-9.79L71.84-9.79 77.12-9.79Q77.12-10.96 76.99-11.88 76.85-12.81 76.56-13.45 76.27-14.09 75.81-14.43 75.36-14.77 74.7-14.77ZM74.99 0.3L74.99 0.3Q73.05 0.3 71.57-0.27 70.08-0.83 69.08-1.91 68.09-2.98 67.58-4.54 67.07-6.1 67.07-8.1L67.07-8.1Q67.07-10.24 67.58-11.87 68.09-13.49 69.05-14.58 70.02-15.67 71.43-16.21 72.84-16.76 74.64-16.76L74.64-16.76Q76.3-16.76 77.63-16.29 78.95-15.82 79.88-14.89 80.8-13.97 81.29-12.6 81.79-11.23 81.79-9.41L81.79-9.41 81.79-7.84 71.78-7.84Q71.83-6.31 72.12-5.2 72.41-4.1 72.92-3.38 73.44-2.67 74.18-2.33 74.91-1.98 75.87-1.98L75.87-1.98Q76.66-1.98 77.33-2.17 78-2.36 78.54-2.69 79.09-3.03 79.5-3.48 79.91-3.94 80.18-4.46L80.18-4.46Q81-4.01 81-2.97L81-2.97Q81-2.31 80.64-1.72 80.28-1.13 79.53-0.69 78.79-0.24 77.66 0.03 76.54 0.3 74.99 0.3Z" transform="translate(-0.9100000262260437, 23.200000762939453)"/>
          </g>
          <g data-gra="path-name-1" fill="#333" transform="translate(83.87999725341797,0)">
            <g transform="scale(1)">
              <path d="M12.15-20.27L7.14-20.27 7.14-11.45 14.51-11.45 14.51-9.96 7.14-9.96 7.14-3.47Q7.14-2.76 7.34-2.33 7.54-1.89 7.88-1.66 8.21-1.43 8.68-1.36 9.14-1.28 9.65-1.28L9.65-1.28 10.66-1.28 10.66 0 1.16 0 1.16-1.28 1.55-1.28Q2.06-1.28 2.51-1.35 2.97-1.42 3.31-1.62 3.65-1.83 3.85-2.24 4.05-2.65 4.05-3.32L4.05-3.32 4.05-18.44Q4.05-19.11 3.85-19.52 3.65-19.93 3.31-20.16 2.97-20.38 2.51-20.45 2.06-20.51 1.55-20.51L1.55-20.51 1.16-20.51 1.16-21.8 16.55-21.8 16.7-16.46 15.12-16.46 14.97-17.77Q14.91-18.29 14.73-18.75 14.55-19.2 14.21-19.54 13.88-19.87 13.37-20.07 12.87-20.27 12.15-20.27L12.15-20.27ZM18.71-1.28L19.11-1.28Q19.62-1.28 20.07-1.35 20.53-1.42 20.87-1.62 21.21-1.83 21.42-2.24 21.62-2.65 21.62-3.32L21.62-3.32 21.62-13Q21.62-13.67 21.42-14.08 21.21-14.49 20.87-14.71 20.53-14.94 20.07-15.01 19.62-15.09 19.11-15.09L19.11-15.09 19.02-15.09 19.02-16.37 24.48-16.37 24.48-3.47Q24.48-2.76 24.68-2.33 24.88-1.89 25.22-1.66 25.55-1.43 26.01-1.36 26.48-1.28 26.98-1.28L26.98-1.28 27.39-1.28 27.39 0 18.71 0 18.71-1.28ZM21.18-21.32L21.18-21.32Q21.18-21.86 21.32-22.21 21.45-22.57 21.69-22.79 21.93-23.02 22.24-23.11 22.56-23.2 22.93-23.2L22.93-23.2Q23.29-23.2 23.6-23.11 23.91-23.02 24.14-22.79 24.37-22.57 24.52-22.21 24.66-21.86 24.66-21.32L24.66-21.32Q24.66-20.78 24.52-20.42 24.37-20.07 24.14-19.84 23.91-19.62 23.6-19.52 23.29-19.43 22.93-19.43L22.93-19.43Q22.56-19.43 22.24-19.52 21.93-19.62 21.69-19.84 21.45-20.07 21.32-20.42 21.18-20.78 21.18-21.32ZM36.75-1.28L36.84-1.28 36.84 0 28.62 0 28.62-1.28 28.88-1.28Q29.4-1.28 29.85-1.36 30.31-1.43 30.64-1.66 30.98-1.89 31.18-2.33 31.38-2.76 31.38-3.47L31.38-3.47 31.38-13Q31.38-13.67 31.18-14.08 30.98-14.49 30.64-14.71 30.29-14.94 29.84-15.01 29.38-15.09 28.88-15.09L28.88-15.09 28.79-15.09 28.79-16.37 33.72-16.37 34.12-13.89 34.27-13.89Q34.75-14.74 35.28-15.29 35.81-15.83 36.4-16.14 36.99-16.44 37.65-16.56 38.31-16.67 39.04-16.67L39.04-16.67Q40.25-16.67 41.2-16.32 42.15-15.97 42.81-15.24 43.47-14.52 43.82-13.39 44.17-12.25 44.17-10.69L44.17-10.69 44.17-3.47Q44.17-2.76 44.34-2.33 44.52-1.89 44.83-1.66 45.14-1.43 45.57-1.36 46.01-1.28 46.51-1.28L46.51-1.28 46.62-1.28 46.62 0 41.3 0 41.3-10.54Q41.3-11.54 41.12-12.31 40.94-13.09 40.54-13.63 40.15-14.16 39.51-14.44 38.87-14.71 37.94-14.71L37.94-14.71Q36.9-14.71 36.19-14.31 35.48-13.91 35.05-13.22 34.62-12.54 34.43-11.64 34.24-10.75 34.24-9.76L34.24-9.76 34.24-3.32Q34.24-2.65 34.45-2.24 34.65-1.83 34.99-1.62 35.33-1.42 35.79-1.35 36.24-1.28 36.75-1.28L36.75-1.28ZM62.91-23.2L62.91-3.35Q62.91-2.68 63.11-2.27 63.31-1.86 63.66-1.64 64-1.42 64.46-1.35 64.91-1.28 65.42-1.28L65.42-1.28 65.67-1.28 65.67 0 60.5 0 60.17-2.74 60.05-2.74Q59.71-2.04 59.27-1.48 58.83-0.92 58.26-0.53 57.69-0.13 56.98 0.08 56.26 0.3 55.37 0.3L55.37 0.3Q53.86 0.3 52.7-0.2 51.54-0.7 50.75-1.74 49.96-2.77 49.55-4.37 49.15-5.96 49.15-8.15L49.15-8.15Q49.15-10.36 49.55-11.97 49.96-13.58 50.75-14.62 51.54-15.67 52.7-16.17 53.86-16.67 55.37-16.67L55.37-16.67Q56.25-16.67 56.96-16.47 57.68-16.28 58.25-15.92 58.83-15.56 59.27-15.07 59.72-14.58 60.05-13.98L60.05-13.98 60.23-13.98Q60.18-14.73 60.14-15.39L60.14-15.39Q60.11-15.95 60.08-16.51 60.05-17.07 60.05-17.34L60.05-17.34 60.05-19.84Q60.05-20.51 59.85-20.92 59.65-21.33 59.3-21.56 58.96-21.78 58.51-21.85 58.05-21.91 57.55-21.91L57.55-21.91 57.29-21.91 57.29-23.2 62.91-23.2ZM55.89-1.65L55.89-1.65Q57.08-1.65 57.88-2.05 58.68-2.44 59.16-3.25 59.65-4.05 59.85-5.28 60.05-6.5 60.05-8.15L60.05-8.15Q60.05-9.75 59.85-10.97 59.65-12.19 59.16-13.02 58.68-13.85 57.87-14.28 57.07-14.71 55.86-14.71L55.86-14.71Q54.86-14.71 54.15-14.28 53.43-13.85 52.98-13.01 52.52-12.18 52.31-10.95 52.1-9.72 52.1-8.12L52.1-8.12Q52.1-4.87 52.98-3.26 53.86-1.65 55.89-1.65ZM74.6-15.03L74.6-15.03Q72.9-15.03 71.98-13.65 71.07-12.27 70.9-9.62L70.9-9.62 77.92-9.62Q77.92-10.82 77.75-11.82 77.57-12.82 77.18-13.54 76.79-14.25 76.16-14.64 75.52-15.03 74.6-15.03ZM74.97 0.3L74.97 0.3Q73.32 0.3 72-0.26 70.68-0.82 69.77-1.89 68.86-2.97 68.38-4.52 67.89-6.08 67.89-8.07L67.89-8.07Q67.89-12.34 69.65-14.51 71.41-16.67 74.66-16.67L74.66-16.67Q76.14-16.67 77.31-16.21 78.49-15.74 79.31-14.83 80.13-13.91 80.57-12.55 81.01-11.18 81.01-9.38L81.01-9.38 81.01-7.98 70.84-7.98Q70.87-6.31 71.18-5.11 71.48-3.91 72.06-3.13 72.63-2.36 73.47-1.99 74.3-1.62 75.39-1.62L75.39-1.62Q76.18-1.62 76.86-1.8 77.54-1.98 78.09-2.28 78.64-2.58 79.06-2.96 79.49-3.34 79.76-3.76L79.76-3.76Q79.97-3.67 80.15-3.38 80.34-3.1 80.34-2.71L80.34-2.71Q80.34-2.25 80.01-1.72 79.68-1.19 79.01-0.75 78.34-0.3 77.34 0 76.33 0.3 74.97 0.3ZM92.37-1.28L92.37 0 83.56 0 83.56-1.28 83.65-1.28Q84.17-1.28 84.63-1.36 85.08-1.43 85.42-1.66 85.75-1.89 85.95-2.33 86.15-2.76 86.15-3.47L86.15-3.47 86.15-13Q86.15-13.67 85.95-14.08 85.75-14.49 85.41-14.71 85.07-14.94 84.61-15.01 84.16-15.09 83.65-15.09L83.65-15.09 83.56-15.09 83.56-16.37 88.26-16.37 88.84-13.34 88.99-13.34Q89.28-14.03 89.6-14.63 89.91-15.24 90.37-15.69 90.82-16.15 91.49-16.41 92.16-16.67 93.18-16.67L93.18-16.67Q94.85-16.67 95.66-16.09 96.47-15.5 96.47-14.45L96.47-14.45Q96.47-13.97 96.31-13.57 96.16-13.16 95.81-12.87 95.47-12.58 94.93-12.43 94.4-12.27 93.62-12.27L93.62-12.27Q93.62-13.54 93.26-14.1 92.91-14.65 92.01-14.65L92.01-14.65Q91.45-14.65 91-14.33 90.55-14.01 90.22-13.48 89.88-12.96 89.65-12.27 89.42-11.58 89.28-10.86 89.14-10.14 89.08-9.42 89.02-8.71 89.02-8.12L89.02-8.12 89.02-3.32Q89.02-2.65 89.22-2.24 89.42-1.83 89.76-1.62 90.1-1.42 90.56-1.35 91.01-1.28 91.52-1.28L91.52-1.28 92.37-1.28Z" transform="translate(-1.159999966621399, 23.200000762939453)"/>
            </g>
          </g>
        </g>
      </g>
    </g>
  </g>
</svg>
